<svg xmlns="http://www.w3.org/2000/svg" width="152" height="152.5" viewBox="0 0 152 152.5"><defs><style>.a{fill:#fff;opacity:0;}.b{stroke:rgba(0,0,0,0);stroke-miterlimit:10;}</style></defs><g transform="translate(0 0.5)"><rect class="a" width="152" height="152"/><g transform="translate(1)"><path class="b" d="M52.849,120V109.324h8.138V81.869L38.6,82,1.5,33.865A7.309,7.309,0,0,1,2.858,23.628l4.186-3.207a7.316,7.316,0,0,1,10.237,1.356L47.9,61.8H88.208V35.644H64.079V0h54.288V35.644H93.674V61.8h6.259l47.524,36.854a7.312,7.312,0,0,1,1.3,10.245l-3.233,4.167a7.311,7.311,0,0,1-10.246,1.3L93.191,81.678l-7.377.043v27.6h8.139V120Zm3.055-3.055H90.9V112.38H55.9Zm81.242-5a4.254,4.254,0,0,0,5.959-.753l3.233-4.167a4.254,4.254,0,0,0-.753-5.958l-46.7-36.214H46.39L14.856,23.634A4.266,4.266,0,0,0,8.9,22.846L4.715,26.053a4.254,4.254,0,0,0-.787,5.954l3.208,4.186L40.092,78.938l20.9-.124v-.1H77.469l16.761-.1Zm-73.1-30.093v27.474H82.759V81.771H77.4Zm3.093-49.262h48.176V3.055H67.135ZM90.9,27.673h-.071a7.21,7.21,0,0,1-5.171-1.865,6.416,6.416,0,0,1-1.722-4.733c0-5.058,6.15-11.794,6.412-12.078l.525-.57L91.4,9c.262.284,6.413,7.02,6.413,12.078a6.419,6.419,0,0,1-1.723,4.733,7.219,7.219,0,0,1-5.173,1.865Zm-5.536-6.6a5.052,5.052,0,0,0,1.3,3.723,5.818,5.818,0,0,0,4.163,1.447h.086A5.818,5.818,0,0,0,95.077,24.8a5.055,5.055,0,0,0,1.3-3.723c0-1.834-1.034-4.329-2.989-7.211a38.943,38.943,0,0,0-2.52-3.3C89.4,12.289,85.362,17.373,85.362,21.075Zm6.05,2.761a2.678,2.678,0,0,0,1.814-.819,3.159,3.159,0,0,0,.662-1.913h1.42a4.524,4.524,0,0,1-1,2.849,4.1,4.1,0,0,1-2.892,1.33Z"/></g></g></svg>