<svg xmlns="http://www.w3.org/2000/svg" width="152" height="152.5" viewBox="0 0 152 152.5"><defs><style>.a{fill:#fff;opacity:0;}.b{fill:#000100;stroke:rgba(0,0,0,0);stroke-miterlimit:10;}</style></defs><g transform="translate(0 0.5)"><rect class="a" width="152" height="152"/><path class="b" d="M26.121,89.857v-3.5H18.015V74.971h0v2.906H0V0H54.906V77.876H36.892v8.482h-7.9v3.5a27.271,27.271,0,0,0,54.541,0V34.893a14.088,14.088,0,1,1,28.176,0V56.525h-2.871V34.893a11.216,11.216,0,1,0-22.433,0V89.857a30.143,30.143,0,0,1-60.286,0Zm8.809-4.687h0ZM21.057,83.316H33.849V74.971h0v2.906H21.057ZM3.043,74.833h48.82V62.119H38.186V59.076H51.863v0h2.5v3.042h0V59.076H51.863V51.034H38.186V47.991H51.863V39.95H38.186V36.907H51.863v0h2.5V39.95h0V36.907H51.863V28.865H38.186V25.822H51.863v0h2.5v3.042h0V25.822H51.863V17.172H3.043Zm51.326-23.8V47.992h0v3.042Zm-2.505,0v0Zm0-33.863V14.129h0V3.042H3.043V14.129h48.82ZM110.074,95.4h-.118a12.091,12.091,0,0,1-8.667-3.125A10.753,10.753,0,0,1,98.4,84.344c0-8.47,10.306-19.764,10.745-20.241l.88-.954.88.954c.439.477,10.745,11.769,10.745,20.241a10.755,10.755,0,0,1-2.886,7.931A12.1,12.1,0,0,1,110.1,95.4Zm-5.585-21.106c-2.452,4-3.694,7.384-3.694,10.051a8.47,8.47,0,0,0,2.185,6.238,9.752,9.752,0,0,0,6.977,2.425h.143a9.756,9.756,0,0,0,6.977-2.425,8.472,8.472,0,0,0,2.184-6.238c0-3.075-1.732-7.254-5.008-12.084a64.538,64.538,0,0,0-4.224-5.531A63.066,63.066,0,0,0,104.489,74.293Zm6.445,14.678a4.5,4.5,0,0,0,3.04-1.373,5.29,5.29,0,0,0,1.109-3.207h2.379a7.579,7.579,0,0,1-1.682,4.775,6.852,6.852,0,0,1-4.846,2.227Z" transform="translate(15 0)"/></g></svg>