<svg xmlns="http://www.w3.org/2000/svg" width="152" height="152.5" viewBox="0 0 152 152.5"><defs><style>.a{fill:#fff;opacity:0;}.b{stroke:rgba(0,0,0,0);stroke-miterlimit:10;}</style></defs><g transform="translate(0 0.5)"><rect class="a" width="152" height="152"/><g transform="translate(24)"><path class="b" d="M101.26,120A34.721,34.721,0,0,0,66.579,85.318H37.722A34.722,34.722,0,0,0,3.038,120H0A37.765,37.765,0,0,1,37.722,82.28h6.384a28.842,28.842,0,0,1-20.75-27.642V36.359a28.794,28.794,0,0,1,57.587,0V54.638A28.841,28.841,0,0,1,60.195,82.28h6.385A37.763,37.763,0,0,1,104.3,120ZM26.394,36.359V54.638a25.755,25.755,0,1,0,51.511,0V36.359a25.755,25.755,0,0,0-51.511,0ZM88.1,82.6v-2.81H99.97V67.927h2.809V82.6Zm-86.583,0V67.927H4.328V79.794H16.2V82.6ZM34.036,34.438l.9-2.9A16.859,16.859,0,0,0,56,20.439l2.9.9a19.848,19.848,0,0,1-24.869,13.1ZM99.97,14.676V2.809H88.1V0h14.677V14.676Zm-98.451,0V0H16.2V2.809H4.328V14.676Z" transform="translate(0 0)"/></g></g></svg>