<svg xmlns="http://www.w3.org/2000/svg" width="22.212" height="22.212" viewBox="0 0 22.212 22.212"><defs><style>.a{fill:#e9e968;}</style></defs><path class="a" d="M11.106,0a11.082,11.082,0,0,1,2.95.39A10.5,10.5,0,0,1,16.7,1.518a12.168,12.168,0,0,1,2.245,1.735A10.573,10.573,0,0,1,20.693,5.5,11.184,11.184,0,0,1,21.81,8.156a11.3,11.3,0,0,1,.4,2.95,10.57,10.57,0,0,1-.054,1.074q-.054.531-.152,1.074a6.031,6.031,0,0,0-1.28-.824q.043-.325.065-.651t.033-.672a9.466,9.466,0,0,0-.347-2.57A9.982,9.982,0,0,0,19.5,6.214a9.378,9.378,0,0,0-1.529-1.974,10.12,10.12,0,0,0-1.963-1.518,9.8,9.8,0,0,0-2.321-.987,9.112,9.112,0,0,0-2.581-.347A9.65,9.65,0,0,0,5.922,2.9,10.333,10.333,0,0,0,3.85,4.642a8.82,8.82,0,0,0-1.518,2.3H5.553V8.329H0V2.776H1.388V5.748A10.866,10.866,0,0,1,3.156,3.362a11.152,11.152,0,0,1,2.31-1.811A11.341,11.341,0,0,1,8.156.4,10.8,10.8,0,0,1,11.106,0Zm0,20.823q.336,0,.662-.022t.662-.076a6.031,6.031,0,0,0,.824,1.28q-.531.1-1.063.152a10.678,10.678,0,0,1-1.085.054,10.833,10.833,0,0,1-2.429-.271,11.368,11.368,0,0,1-2.256-.77,10.645,10.645,0,0,1-2.028-1.236,11.888,11.888,0,0,1-1.724-1.627,10.548,10.548,0,0,1-1.345-1.974,11.607,11.607,0,0,1-.911-2.267L1.746,13.7A9.412,9.412,0,0,0,3.08,16.572a9.946,9.946,0,0,0,2.147,2.256,9.552,9.552,0,0,0,2.744,1.464A10.074,10.074,0,0,0,11.106,20.823Z"/></svg>