<svg xmlns="http://www.w3.org/2000/svg" width="27.406" height="37.866" viewBox="0 0 27.406 37.866"><defs><style>.a{fill:#fff;}.b{stroke:rgba(0,0,0,0);stroke-miterlimit:10;}</style></defs><g transform="translate(0.5 0.738)"><path class="a" d="M453.026,458.99c1.275,0,11.844.165,11.844-11.2,0-9.208-11.844-22.067-11.844-22.067s-11.844,12.859-11.844,22.067C441.182,459.154,451.752,458.99,453.026,458.99Z" transform="translate(-439.824 -423.72)"/><path class="b" d="M453.287,460.612h-.164c-4.056,0-7.55-1.259-9.842-3.549-2.176-2.171-3.278-5.2-3.278-9.007,0-9.627,11.7-22.447,12.2-22.987l1-1.085,1,1.085c.5.54,12.2,13.36,12.2,22.987,0,3.8-1.1,6.836-3.278,9.007C460.837,459.352,457.343,460.612,453.287,460.612Zm-.082-2.717h.082c3.331,0,6.144-.978,7.923-2.754,1.646-1.644,2.481-4.028,2.481-7.085,0-3.492-1.967-8.238-5.688-13.724a73.987,73.987,0,0,0-4.8-6.282c-2.794,3.283-10.486,12.959-10.486,20.006,0,3.057.834,5.441,2.481,7.085,1.778,1.776,4.592,2.754,7.922,2.754h.082Z" transform="translate(-440.003 -423.984)"/><path class="b" d="M457.07,444.931a6,6,0,0,1-1.26,3.641,5.1,5.1,0,0,1-3.452,1.56v2.752a7.787,7.787,0,0,0,5.5-2.531,8.607,8.607,0,0,0,1.91-5.422Z" transform="translate(-438.128 -420.804)"/></g></svg>